# xmcd
#
# Track frame offsets: 
#        182
#        10180
#        21647
#        32030
#        42850
#        53202
#        64520
#        76210
#        87790
#        99067
#        110057
#        120505
#        132257
#        143020
#        154157
#        168690
#        181747
#        192387
#        203840
#        216395
#
# Disc length: 3069 seconds
#
# Revision: 0
# Processed by: cddbd v1.5.2PL0 Copyright (c) Steve Scherf et al.
# Submitted via: ExactAudioCopy v0.99pb4
#
DISCID=0f0bfb14
DTITLE=Patsy Cline - Walkin' after midnight
DYEAR=1989
DGENRE=Country
TTITLE0=Turn the cards slowly
TTITLE1=The heart you break
TTITLE2=Three cigarettes in an ashtray
TTITLE3=I cried all the way to the altar
TTITLE4=Pick me up (On your way down)
TTITLE5=Just out of reach
TTITLE6=In care of the blues
TTITLE7=I've loved and lost again
TTITLE8=Hungry for love
TTITLE9=I can't forget you
TTITLE10=I love you honey
TTITLE11=Never no more
TTITLE12=Stop look and listen
TTITLE13=Don't ever leave me
TTITLE14=Then you'll know
TTITLE15=If I could see the world
TTITLE16=Honky tonk merry-go-round
TTITLE17=Walkin' after midnight
TTITLE18=Fingerprints
TTITLE19=A church, a courtroom, and then goodbye
EXTD=
EXTT0=
EXTT1=
EXTT2=
EXTT3=
EXTT4=
EXTT5=
EXTT6=
EXTT7=
EXTT8=
EXTT9=
EXTT10=
EXTT11=
EXTT12=
EXTT13=
EXTT14=
EXTT15=
EXTT16=
EXTT17=
EXTT18=
EXTT19=
PLAYORDER=
